<?xml version="1.0" encoding="UTF-8"?>
<svg id="Lager_2" data-name="Lager 2" xmlns="http://www.w3.org/2000/svg" viewBox="0 0 367.16 367.16">
  <defs>
    <style>
      .cls-1 {
        fill: #fff;
      }

      .cls-2 {
        fill: #f39200;
      }

      .cls-3 {
        fill: #f9b233;
      }

      .cls-4 {
        fill: none;
      }

      .cls-5 {
        fill: #1d1d1b;
      }
    </style>
  </defs>
  <g id="Lager_2-2" data-name="Lager 2">
    <path class="cls-1" d="M319.88,60.59c.03-.06,.06-.12,.08-.19-2.16-2.38-4.37-4.7-6.65-6.95-13.04-12.95-28-23.95-44.43-32.55-2.52-1.32-5.07-2.58-7.66-3.78-.01,.01-.02,.03-.03,.04-8.6-4.01-17.56-7.39-26.82-10.06-1.32-.37-2.66-.74-3.99-1.1-.71-.19-1.43-.37-2.14-.55-.76-.19-1.53-.37-2.3-.56-2.05-.48-4.1-.93-6.18-1.34-2.07-.41-4.15-.8-6.25-1.14-1.93-.31-3.87-.6-5.84-.86-1.3-.17-2.6-.32-3.92-.47-.66-.07-1.31-.14-1.97-.21-1.03-.1-2.08-.2-3.12-.28-.62-.05-1.25-.09-1.88-.14-.17-.01-.33-.02-.5-.03-.79-.05-1.57-.1-2.36-.14-.86-.05-1.72-.09-2.57-.12-.7-.03-1.41-.06-2.11-.07-.3-.02-.6-.02-.89-.03-1.58-.04-3.16-.06-4.75-.06h-.02c-.92,0-1.84,.01-2.75,.02-1.04,.01-2.09,.04-3.13,.07-.79,.02-1.57,.05-2.36,.09-.75,.03-1.51,.06-2.26,.11-.27,.01-.54,.03-.8,.04-.81,.05-1.59,.1-2.39,.17-.69,.05-1.38,.1-2.07,.17-1.12,.09-2.23,.2-3.34,.31-.9,.09-1.79,.19-2.69,.3-.86,.09-1.72,.21-2.56,.32-.97,.12-1.94,.27-2.91,.4-.73,.11-1.46,.23-2.18,.34-1.05,.18-2.11,.35-3.15,.53-1.68,.31-3.36,.63-5.02,.98-.88,.19-1.76,.37-2.63,.56-14.66,3.3-28.65,8.33-41.77,14.89-.01-.02-.02-.03-.03-.05-3.58,1.78-7.09,3.68-10.53,5.68-16.24,9.47-30.91,21.35-43.5,35.15-1.38,1.51-2.74,3.05-4.07,4.61,.03,.06,.06,.12,.09,.19C16.38,96.89,0,138.32,0,183.58c-.02,5.97,.05,11.75,.22,17.34,4.32,154.37,74.14,165.39,162.64,166.18,6.8,.06,13.71,.06,20.72,.06s13.93,0,20.74-.06c88.24-.79,157.55-11.78,162.55-165.23,.2-5.88,.29-11.98,.29-18.29,0-47.31-17.9-90.43-47.28-122.98Zm-136.25,209.04h-.08c-2.27,45.49-54.37,42.23-54.37,42.23-54.15,1-69.87-46.27-72.22-54.58-22.21-7.9-38.1-29.12-38.1-54.04,0-.87,.02-1.73,.06-2.58,.01-.28,.02-.55,.04-.83,.02-.41,.05-.83,.08-1.24,.03-.4,.07-.82,.11-1.22,.04-.48,.1-.96,.17-1.44,.04-.34,.08-.68,.14-1.02,.07-.51,.14-1.01,.24-1.51,.06-.37,.12-.73,.2-1.1,.12-.65,.26-1.3,.41-1.95,.08-.38,.18-.75,.27-1.13,.19-.73,.38-1.47,.6-2.19,.1-.36,.22-.73,.33-1.1,.37-1.19,.79-2.37,1.25-3.53,.14-.39,.3-.77,.46-1.16,.14-.34,.28-.68,.43-1.02,.02-.05,.04-.09,.06-.14,.15-.36,.32-.71,.49-1.06,.17-.37,.34-.73,.53-1.11,.33-.68,.68-1.35,1.04-2.01,.12-.24,.26-.48,.39-.71,.14-.26,.29-.52,.44-.76,.43-.76,.9-1.52,1.37-2.25,.24-.37,.49-.73,.73-1.1,.5-.73,1-1.45,1.53-2.15,.37-.51,.75-1,1.15-1.49,.19-.23,.37-.45,.56-.68,.58-.7,1.18-1.41,1.8-2.08,.29-.32,.59-.64,.89-.96,.33-.35,.67-.69,1.01-1.03,.48-.49,.97-.95,1.47-1.42,1.75-1.63,3.6-3.15,5.54-4.56,.24-.17,.49-.34,.72-.51,.34-.25,.68-.48,1.02-.7,.33-.22,.67-.44,1.01-.66,.4-.26,.81-.51,1.21-.74,1.03-.63,2.08-1.22,3.15-1.77,.3-.17,.61-.32,.91-.47,.36-.19,.73-.36,1.1-.54,.37-.17,.73-.34,1.11-.51,7.13-3.17,15.01-4.94,23.32-4.94,1.38,0,2.75,.05,4.1,.14,.22-.68,.43-1.35,.66-2.03,.12-.37,.25-.73,.38-1.11,.01-.05,.03-.1,.05-.16,.22-.64,.44-1.27,.68-1.9,.22-.59,.44-1.18,.67-1.76,.35-.9,.71-1.78,1.09-2.65,.22-.52,.43-1.02,.66-1.52,.44-1.01,.91-1.99,1.38-2.97,.16-.35,.33-.7,.51-1.04,.31-.62,.63-1.23,.95-1.83,.86-1.62,1.76-3.19,2.71-4.71,.35-.58,.71-1.16,1.08-1.72,.06-.1,.12-.21,.2-.3,.3-.47,.61-.92,.93-1.37,.29-.41,.58-.83,.88-1.24,.97-1.35,1.98-2.66,3.04-3.91,.33-.41,.67-.81,1.02-1.2,.71-.83,1.46-1.63,2.23-2.41,.31-.33,.63-.65,.95-.96,.34-.34,.69-.66,1.03-.98,.77-.73,1.58-1.44,2.4-2.11,.35-.29,.7-.58,1.05-.85,1.16-.91,2.34-1.75,3.53-2.52,.4-.26,.81-.51,1.21-.75,.4-.25,.81-.49,1.22-.71,.36-.2,.72-.39,1.08-.59,.04-.02,.09-.05,.14-.07,.41-.22,.84-.42,1.25-.62,.34-.17,.67-.32,1.01-.47,.95-.42,1.91-.81,2.88-1.15,.7-.25,1.43-.48,2.15-.68,.01-.01,.02-.01,.03-.01,.28-.08,.57-.16,.85-.23,1.2-.32,2.41-.57,3.64-.74,.3-.05,.59-.09,.89-.12,.58-.07,1.17-.13,1.76-.18,.42-.03,.85-.06,1.27-.07,.45-.02,.92-.03,1.37-.03s.92,.01,1.38,.03c.48,.01,.94,.04,1.42,.08,.9,.07,1.79,.18,2.68,.32,2.78,.42,5.49,1.19,8.12,2.25,.41,.17,.84,.34,1.25,.53,1.22,.54,2.43,1.15,3.63,1.83,.34,.19,.68,.38,1.01,.59,4.58,2.75,8.86,6.44,12.74,10.92,.29,.33,.58,.67,.87,1.01,.55,.65,1.09,1.32,1.6,2.01,.27,.33,.53,.67,.77,1.02,.75,1,1.48,2.05,2.19,3.11,.27,.4,.54,.82,.81,1.24,.31,.49,.62,.97,.91,1.47,.24,.38,.47,.76,.7,1.16,.25,.42,.5,.86,.74,1.29,.23,.4,.45,.82,.67,1.22,.59,1.08,1.16,2.19,1.7,3.32,.21,.41,.4,.83,.6,1.25,.2,.4,.38,.82,.57,1.22,.2,.42,.38,.84,.57,1.27,.31,.7,.61,1.42,.9,2.13,.18,.42,.35,.86,.52,1.29,.14,.37,.29,.73,.43,1.11,.13,.37,.28,.74,.41,1.12,.22,.6,.43,1.2,.64,1.8,.29,.84,.58,1.68,.85,2.53,.18,.55,.35,1.11,.52,1.66,.14,.49,.29,.98,.43,1.47,.18,.59,.34,1.19,.5,1.79,.14,.53,.29,1.06,.42,1.61,.09,.37,.19,.74,.28,1.12,.12,.52,.25,1.04,.37,1.56,.11,.52,.23,1.03,.34,1.55,.12,.57,.25,1.16,.36,1.74,.57,2.83,1.05,5.73,1.43,8.68,.09,.68,.18,1.36,.25,2.06,.55,4.83,.83,9.79,.83,14.85,0-16.35,2.94-31.63,8.04-44.6,8.38-21.3,22.57-36.39,39.11-39.84,2.38-.5,4.8-.75,7.26-.75,.67,0,1.33,.02,1.99,.06,10.41,.58,20.07,5.75,28.19,14.24,2.04,2.13,3.97,4.46,5.8,6.99,5.34,7.38,9.74,16.37,12.92,26.48,1.82-.18,3.66-.27,5.52-.27,1.34,0,2.69,.04,4.01,.14,.24,.01,.48,.03,.71,.05,.47,.03,.94,.07,1.41,.13,.26,.02,.51,.05,.76,.08,.43,.05,.87,.11,1.3,.18,.38,.05,.76,.1,1.15,.18,.42,.07,.85,.14,1.27,.23,.42,.07,.85,.16,1.26,.25,.41,.08,.83,.18,1.23,.27,.41,.09,.83,.19,1.23,.3,.36,.09,.72,.19,1.07,.29,.49,.13,.97,.27,1.46,.42,.34,.1,.68,.21,1.02,.32,.48,.15,.94,.32,1.42,.5,.37,.12,.73,.26,1.11,.4,.38,.14,.75,.29,1.13,.43,.12,.05,.24,.1,.36,.16,.38,.15,.75,.32,1.14,.49,.29,.12,.57,.25,.86,.38,.37,.17,.74,.35,1.12,.53s.74,.36,1.11,.55c.56,.29,1.12,.58,1.65,.89,.44,.24,.88,.49,1.31,.74,.65,.38,1.28,.77,1.91,1.18,.53,.34,1.04,.68,1.56,1.04,.33,.23,.66,.45,.98,.69,1.04,.74,2.06,1.54,3.05,2.36,.27,.22,.53,.44,.8,.68,.81,.68,1.58,1.38,2.35,2.13,.24,.22,.48,.44,.69,.68,.72,.7,1.42,1.43,2.09,2.18,.22,.24,.43,.48,.64,.71,.38,.43,.75,.87,1.12,1.31,.37,.45,.74,.9,1.08,1.36,.06,.07,.12,.14,.18,.23,.38,.49,.74,.98,1.11,1.48,.25,.34,.49,.68,.71,1.02,.24,.34,.47,.68,.69,1.03,.22,.33,.43,.67,.65,1.01,.33,.53,.66,1.06,.97,1.61,.32,.55,.62,1.1,.92,1.65,.2,.37,.39,.73,.58,1.11,.28,.56,.56,1.12,.83,1.68,.26,.57,.52,1.14,.76,1.72,.09,.2,.18,.39,.25,.59,.08,.2,.17,.38,.24,.58,.16,.39,.31,.77,.45,1.18,.12,.31,.24,.61,.34,.92,.05,.13,.1,.27,.13,.39,.18,.5,.34,.99,.51,1.49,.18,.57,.35,1.15,.52,1.73,.77,2.73,1.35,5.53,1.72,8.4,.06,.48,.12,.96,.17,1.44,.08,.77,.14,1.55,.19,2.34,.02,.29,.04,.59,.05,.88,.04,.88,.06,1.77,.06,2.66,0,25.52-16.67,47.15-39.71,54.59-2.83,9.64-19,55.01-72.06,54.03,0,0-52.1,3.25-54.37-42.23Z"/>
    <path class="cls-1" d="M288.94,184.14c0,6.55-.49,12.92-1.41,19.03-3.15,20.89-11.38,38.71-22.54,50.09-8.25,8.43-18.12,13.33-28.71,13.33s-21.08-5.21-29.49-14.14c-13.98-14.82-23.17-39.89-23.17-68.31,0-15.82,2.85-30.61,7.78-43.16,8.11-20.61,21.84-35.22,37.85-38.56,2.3-.48,4.65-.73,7.03-.73,.65,0,1.29,.02,1.93,.06,10.07,.56,19.42,5.56,27.28,13.78,1.97,2.06,3.84,4.32,5.61,6.76,5.17,7.14,9.43,15.84,12.5,25.63,3.42,10.93,5.34,23.23,5.34,36.22Z"/>
    <path class="cls-2" d="M48.08,69.27c-.03-.06-.06-.12-.09-.18C21.45,100.21,5.43,140.57,5.43,184.67c0,5.48,.25,10.9,.74,16.25-.16-5.41-.23-11-.21-16.78,0-43.8,15.85-83.89,42.12-114.87ZM104.22,25.11s.02,.03,.03,.05c12.69-6.35,26.23-11.22,40.42-14.41-14.2,3.17-27.75,8.03-40.45,14.36Zm79.4,336.69c-6.78,0-13.47,0-20.05-.06,6.58,.74,13.28,1.12,20.06,1.12s13.47-.38,20.06-1.12c-6.59,.06-13.28,.06-20.07,.06ZM206.92,7.99c1.9,.25,3.78,.53,5.65,.83-1.87-.31-3.75-.59-5.65-.83Zm11.7,1.93c2.01,.4,4,.84,5.98,1.3-1.98-.47-3.97-.9-5.98-1.3Zm125.77,190.68c-.01-.28-.03-.57-.05-.85-.04-.76-.1-1.51-.18-2.26-.04-.46-.1-.93-.16-1.39-.35-2.78-.91-5.49-1.66-8.13-.16-.56-.33-1.12-.5-1.67-.16-.48-.32-.96-.49-1.44-.03-.12-.08-.25-.13-.38-.1-.3-.21-.59-.33-.89-.14-.39-.29-.76-.44-1.14-.07-.19-.15-.37-.23-.56-.07-.19-.15-.38-.24-.57-.24-.56-.49-1.11-.74-1.66-.26-.55-.53-1.09-.8-1.63-.18-.36-.37-.71-.56-1.07-.29-.54-.58-1.07-.89-1.6-.3-.53-.62-1.05-.94-1.56-.21-.33-.42-.66-.63-.98-.22-.34-.44-.67-.67-1-.22-.33-.45-.66-.69-.99-.35-.48-.7-.96-1.07-1.43-.05-.08-.11-.15-.17-.22-.33-.45-.69-.88-1.05-1.32-.35-.43-.71-.85-1.08-1.27-.2-.23-.41-.46-.62-.69-.65-.73-1.32-1.43-2.02-2.11-.22-.23-.44-.45-.67-.66-.74-.72-1.49-1.4-2.27-2.06-.26-.23-.51-.45-.77-.66-.96-.79-1.94-1.56-2.95-2.28-.31-.23-.63-.45-.95-.67-.5-.35-1-.68-1.51-1.01-.61-.39-1.22-.77-1.85-1.14-.42-.25-.84-.49-1.27-.72-.52-.3-1.06-.58-1.6-.86-.35-.18-.71-.36-1.07-.53s-.72-.35-1.08-.51c-.28-.13-.55-.25-.83-.37-.37-.16-.73-.32-1.1-.47-.12-.05-.23-.1-.35-.15-.36-.14-.72-.28-1.09-.42-.36-.14-.71-.27-1.07-.39-.46-.17-.91-.33-1.37-.48-.33-.11-.66-.21-.99-.31-.47-.15-.94-.28-1.41-.41-.34-.1-.69-.19-1.04-.28-.39-.11-.79-.2-1.19-.29-.39-.09-.79-.18-1.19-.26-.4-.09-.81-.17-1.22-.24-.41-.08-.82-.15-1.23-.22-.37-.07-.74-.12-1.11-.17-.42-.06-.84-.12-1.26-.17-.25-.03-.49-.06-.74-.08-.45-.06-.91-.1-1.36-.13-.23-.02-.46-.04-.69-.05-1.28-.1-2.58-.14-3.88-.14-1.8,0-3.58,.09-5.34,.26,3.42,10.93,5.34,23.23,5.34,36.22,0,6.55-.49,12.92-1.41,19.03-3.15,20.89-11.38,38.71-22.54,50.09-8.25,8.43-18.12,13.33-28.71,13.33s-21.08-5.21-29.49-14.14c-13.98-14.82-23.17-39.89-23.17-68.31,0,28.42-9.19,53.49-23.17,68.31-8.41,8.93-18.56,14.14-29.49,14.14s-20.1-4.72-28.26-12.87c-11.39-11.36-19.79-29.37-22.99-50.55-.92-6.11-1.41-12.48-1.41-19.03,0-13.04,1.93-25.38,5.38-36.34-1.31-.09-2.63-.14-3.97-.14-8.04,0-15.67,1.71-22.57,4.78-.36,.16-.71,.33-1.07,.49-.35,.17-.71,.34-1.06,.52-.29,.14-.59,.29-.88,.45-1.04,.53-2.05,1.1-3.05,1.71-.39,.23-.78,.47-1.17,.72-.33,.21-.66,.43-.98,.64-.33,.22-.66,.44-.99,.68-.23,.16-.47,.33-.7,.49-1.88,1.36-3.67,2.83-5.36,4.41-.48,.45-.96,.9-1.42,1.37-.33,.33-.66,.66-.98,1-.29,.31-.58,.62-.86,.93-.6,.65-1.18,1.33-1.74,2.01-.18,.22-.36,.44-.54,.66-.38,.47-.75,.95-1.11,1.44-.51,.68-1,1.37-1.48,2.08-.24,.35-.48,.7-.71,1.06-.46,.71-.91,1.44-1.33,2.18-.15,.24-.29,.49-.43,.74-.13,.23-.26,.46-.38,.69-.35,.64-.69,1.29-1.01,1.95-.18,.36-.35,.71-.51,1.07-.16,.34-.32,.68-.47,1.03-.02,.05-.04,.09-.06,.14-.15,.33-.28,.66-.42,.99-.16,.37-.31,.74-.45,1.12-.45,1.13-.85,2.27-1.21,3.42-.11,.35-.22,.71-.32,1.06-.21,.7-.4,1.41-.58,2.12-.09,.36-.18,.72-.26,1.09-.15,.63-.28,1.26-.4,1.89-.07,.35-.13,.7-.19,1.06-.09,.48-.16,.97-.23,1.46-.06,.33-.1,.66-.14,.99-.06,.46-.12,.93-.16,1.39-.04,.39-.08,.79-.11,1.18-.03,.4-.06,.8-.08,1.2-.02,.27-.03,.53-.04,.8-.04,.83-.06,1.66-.06,2.5,0,24.12,15.38,44.65,36.87,52.3,2.27,8.04,17.49,53.79,69.89,52.82,0,0,50.42,3.15,52.62-40.87h.08c2.2,44.02,52.62,40.87,52.62,40.87,51.35,.95,67-42.96,69.74-52.29,22.3-7.2,38.43-28.13,38.43-52.83,0-.86-.02-1.72-.06-2.57Zm17.43-15.93c0-46.09-17.5-88.09-46.22-119.73-.02,.06-.05,.12-.08,.18,28.44,31.51,45.76,73.24,45.76,119.02,0,6.11-.09,12.01-.28,17.7,.54-5.65,.82-11.38,.82-17.17ZM232.76,13.35c8.97,2.59,17.64,5.86,25.96,9.74,.01-.01,.02-.03,.03-.04-8.33-3.88-17.01-7.14-25.99-9.7Z"/>
    <path class="cls-1" d="M183.62,184.14c0,28.42-9.19,53.49-23.17,68.31-8.41,8.93-18.56,14.14-29.49,14.14s-20.1-4.72-28.26-12.87c-11.39-11.36-19.79-29.37-22.99-50.55-.92-6.11-1.41-12.48-1.41-19.03,0-13.04,1.93-25.38,5.38-36.34,.21-.66,.42-1.31,.64-1.96,.12-.36,.24-.71,.37-1.07,.01-.05,.03-.1,.05-.15,.21-.62,.43-1.23,.66-1.84,.21-.57,.43-1.14,.65-1.7,.34-.87,.69-1.72,1.05-2.56,.21-.5,.42-.99,.64-1.47,.43-.98,.88-1.93,1.34-2.87,.15-.34,.32-.68,.49-1.01,.3-.6,.61-1.19,.92-1.77,.83-1.57,1.7-3.09,2.62-4.56,.34-.56,.69-1.12,1.05-1.66,.06-.1,.12-.2,.19-.29,.29-.45,.59-.89,.9-1.33,.28-.4,.56-.8,.85-1.2,.94-1.31,1.92-2.57,2.94-3.78,.32-.4,.65-.78,.99-1.16,.69-.8,1.41-1.58,2.16-2.33,.3-.32,.61-.63,.92-.93,.33-.33,.67-.64,1-.95,.75-.71,1.53-1.39,2.32-2.04,.34-.28,.68-.56,1.02-.82,1.12-.88,2.26-1.69,3.42-2.44,.39-.25,.78-.49,1.17-.73,.39-.24,.78-.47,1.18-.69,.35-.19,.7-.38,1.05-.57,.04-.02,.09-.05,.14-.07,.4-.21,.81-.41,1.21-.6,.33-.16,.65-.31,.98-.45,.92-.41,1.85-.78,2.79-1.11,.68-.24,1.38-.46,2.08-.66,.01-.01,.02-.01,.03-.01,.27-.08,.55-.15,.82-.22,1.16-.31,2.33-.55,3.52-.72,.29-.05,.57-.09,.86-.12,.56-.07,1.13-.13,1.7-.17,.41-.03,.82-.06,1.23-.07,.44-.02,.89-.03,1.33-.03s.89,.01,1.34,.03c.46,0,.91,.04,1.37,.08,.87,.07,1.73,.17,2.59,.31,2.69,.41,5.31,1.15,7.86,2.18,.4,.16,.81,.33,1.21,.51,1.18,.52,2.35,1.11,3.51,1.77,.33,.18,.66,.37,.98,.57,4.43,2.66,8.57,6.23,12.33,10.57,.28,.32,.56,.65,.84,.98,.53,.63,1.05,1.28,1.55,1.95,.26,.32,.51,.65,.75,.99,.73,.97,1.43,1.98,2.12,3.01,.26,.39,.52,.79,.78,1.2,.3,.47,.6,.94,.88,1.42,.23,.37,.45,.74,.68,1.12,.24,.41,.48,.83,.72,1.25,.22,.39,.44,.79,.65,1.18,.57,1.05,1.12,2.12,1.65,3.21,.2,.4,.39,.8,.58,1.21,.19,.39,.37,.79,.55,1.18,.19,.41,.37,.81,.55,1.23,.3,.68,.59,1.37,.87,2.06,.17,.41,.34,.83,.5,1.25,.14,.36,.28,.71,.42,1.07,.13,.36,.27,.72,.4,1.08,.21,.58,.42,1.16,.62,1.74,.28,.81,.56,1.63,.82,2.45,.17,.53,.34,1.07,.5,1.61,.14,.47,.28,.95,.42,1.42,.17,.57,.33,1.15,.48,1.73,.14,.51,.28,1.03,.41,1.56,.09,.36,.18,.72,.27,1.08,.12,.5,.24,1.01,.36,1.51,.11,.5,.22,1,.33,1.5,.12,.55,.24,1.12,.35,1.68,.55,2.74,1.02,5.55,1.38,8.4,.09,.66,.17,1.32,.24,1.99,.53,4.67,.8,9.47,.8,14.37Z"/>
    <path class="cls-2" d="M183.64,267.1c-.01,.07-.01,.1-.02,.12,.01,.03,0,.04,0,.04-.01,.01-.01,.02-.01,.03-.01,.01-.01,.03-.01,.05s-.01,.05-.01,.08h.08c-.02-.25-.01-.11-.02-.32Z"/>
    <path class="cls-2" d="M315.52,65.12c.03-.06,.06-.12,.08-.18-2.09-2.3-4.23-4.55-6.44-6.73-12.62-12.53-27.1-23.18-43-31.5-2.44-1.28-4.91-2.5-7.41-3.66-.01,.01-.02,.03-.03,.04-8.32-3.88-16.99-7.15-25.96-9.74-1.28-.36-2.57-.72-3.86-1.06-.69-.18-1.38-.36-2.07-.53-.74-.18-1.48-.36-2.23-.54-1.98-.46-3.97-.9-5.98-1.3-2-.4-4.02-.77-6.05-1.1-1.87-.3-3.75-.58-5.65-.83-1.26-.16-2.52-.31-3.79-.45-.64-.07-1.27-.14-1.91-.2-1-.1-2.01-.19-3.02-.27-.6-.05-1.21-.09-1.82-.14-.16-.01-.32-.02-.48-.03-.76-.05-1.52-.1-2.28-.14-.83-.05-1.66-.09-2.49-.12-.68-.03-1.36-.06-2.04-.07-.29-.02-.58-.02-.86-.03-1.53-.04-3.06-.06-4.6-.06h-.02c-.89,0-1.78,.01-2.66,.02-1.01,.01-2.02,.04-3.03,.07-.76,.02-1.52,.05-2.28,.09-.73,.03-1.46,.06-2.19,.11-.26,.01-.52,.03-.77,.04-.78,.05-1.54,.1-2.31,.16-.67,.05-1.34,.1-2,.16-1.08,.09-2.16,.19-3.23,.3-.87,.09-1.73,.18-2.6,.29-.83,.09-1.66,.2-2.48,.31-.94,.12-1.88,.26-2.82,.39-.71,.11-1.41,.22-2.11,.33-1.02,.17-2.04,.34-3.05,.51-1.63,.3-3.25,.61-4.86,.95-.85,.18-1.7,.36-2.55,.54-14.19,3.19-27.73,8.06-40.42,14.41-.01-.02-.02-.03-.03-.05-3.46,1.72-6.86,3.56-10.19,5.5-15.72,9.16-29.91,20.66-42.1,34.02-1.34,1.46-2.65,2.95-3.94,4.46,.03,.06,.06,.12,.09,.18C21.81,100.25,5.96,140.34,5.96,184.14c-.02,5.78,.05,11.37,.21,16.78,4.18,149.39,71.75,160.06,157.4,160.82,6.58,.06,13.27,.06,20.05,.06s13.48,0,20.07-.06c85.4-.76,152.47-11.4,157.31-159.9,.19-5.69,.28-11.59,.28-17.7,0-45.78-17.32-87.51-45.76-119.02Zm-131.86,202.3h-.08c-2.2,44.02-52.62,40.87-52.62,40.87-52.4,.97-67.62-44.78-69.89-52.82-21.49-7.65-36.87-28.18-36.87-52.3,0-.84,.02-1.67,.06-2.5,.01-.27,.02-.53,.04-.8,.02-.4,.05-.8,.08-1.2,.03-.39,.07-.79,.11-1.18,.04-.46,.1-.93,.16-1.39,.04-.33,.08-.66,.14-.99,.07-.49,.14-.98,.23-1.46,.06-.36,.12-.71,.19-1.06,.12-.63,.25-1.26,.4-1.89,.08-.37,.17-.73,.26-1.09,.18-.71,.37-1.42,.58-2.12,.1-.35,.21-.71,.32-1.06,.36-1.15,.76-2.29,1.21-3.42,.14-.38,.29-.75,.45-1.12,.14-.33,.27-.66,.42-.99,.02-.05,.04-.09,.06-.14,.15-.35,.31-.69,.47-1.03,.16-.36,.33-.71,.51-1.07,.32-.66,.66-1.31,1.01-1.95,.12-.23,.25-.46,.38-.69,.14-.25,.28-.5,.43-.74,.42-.74,.87-1.47,1.33-2.18,.23-.36,.47-.71,.71-1.06,.48-.71,.97-1.4,1.48-2.08,.36-.49,.73-.97,1.11-1.44,.18-.22,.36-.44,.54-.66,.56-.68,1.14-1.36,1.74-2.01,.28-.31,.57-.62,.86-.93,.32-.34,.65-.67,.98-1,.46-.47,.94-.92,1.42-1.37,1.69-1.58,3.48-3.05,5.36-4.41,.23-.16,.47-.33,.7-.49,.33-.24,.66-.46,.99-.68,.32-.21,.65-.43,.98-.64,.39-.25,.78-.49,1.17-.72,1-.61,2.01-1.18,3.05-1.71,.29-.16,.59-.31,.88-.45,.35-.18,.71-.35,1.06-.52,.36-.16,.71-.33,1.07-.49,6.9-3.07,14.53-4.78,22.57-4.78,1.34,0,2.66,.05,3.97,.14,.21-.66,.42-1.31,.64-1.96,.12-.36,.24-.71,.37-1.07,.01-.05,.03-.1,.05-.15,.21-.62,.43-1.23,.66-1.84,.21-.57,.43-1.14,.65-1.7,.34-.87,.69-1.72,1.05-2.56,.21-.5,.42-.99,.64-1.47,.43-.98,.88-1.93,1.34-2.87,.15-.34,.32-.68,.49-1.01,.3-.6,.61-1.19,.92-1.77,.83-1.57,1.7-3.09,2.62-4.56,.34-.56,.69-1.12,1.05-1.66,.06-.1,.12-.2,.19-.29,.29-.45,.59-.89,.9-1.33,.28-.4,.56-.8,.85-1.2,.94-1.31,1.92-2.57,2.94-3.78,.32-.4,.65-.78,.99-1.16,.69-.8,1.41-1.58,2.16-2.33,.3-.32,.61-.63,.92-.93,.33-.33,.67-.64,1-.95,.75-.71,1.53-1.39,2.32-2.04,.34-.28,.68-.56,1.02-.82,1.12-.88,2.26-1.69,3.42-2.44,.39-.25,.78-.49,1.17-.73,.39-.24,.78-.47,1.18-.69,.35-.19,.7-.38,1.05-.57,.04-.02,.09-.05,.14-.07,.4-.21,.81-.41,1.21-.6,.33-.16,.65-.31,.98-.45,.92-.41,1.85-.78,2.79-1.11,.68-.24,1.38-.46,2.08-.66,.01-.01,.02-.01,.03-.01,.27-.08,.55-.15,.82-.22,1.16-.31,2.33-.55,3.52-.72,.29-.05,.57-.09,.86-.12,.56-.07,1.13-.13,1.7-.17,.41-.03,.82-.06,1.23-.07,.44-.02,.89-.03,1.33-.03s.89,.01,1.34,.03c.46,0,.91,.04,1.37,.08,.87,.07,1.73,.17,2.59,.31,2.69,.41,5.31,1.15,7.86,2.18,.4,.16,.81,.33,1.21,.51,1.18,.52,2.35,1.11,3.51,1.77,.33,.18,.66,.37,.98,.57,4.43,2.66,8.57,6.23,12.33,10.57,.28,.32,.56,.65,.84,.98,.53,.63,1.05,1.28,1.55,1.95,.26,.32,.51,.65,.75,.99,.73,.97,1.43,1.98,2.12,3.01,.26,.39,.52,.79,.78,1.2,.3,.47,.6,.94,.88,1.42,.23,.37,.45,.74,.68,1.12,.24,.41,.48,.83,.72,1.25,.22,.39,.44,.79,.65,1.18,.57,1.05,1.12,2.12,1.65,3.21,.2,.4,.39,.8,.58,1.21,.19,.39,.37,.79,.55,1.18,.19,.41,.37,.81,.55,1.23,.3,.68,.59,1.37,.87,2.06,.17,.41,.34,.83,.5,1.25,.14,.36,.28,.71,.42,1.07,.13,.36,.27,.72,.4,1.08,.21,.58,.42,1.16,.62,1.74,.28,.81,.56,1.63,.82,2.45,.17,.53,.34,1.07,.5,1.61,.14,.47,.28,.95,.42,1.42,.17,.57,.33,1.15,.48,1.73,.14,.51,.28,1.03,.41,1.56,.09,.36,.18,.72,.27,1.08,.12,.5,.24,1.01,.36,1.51,.11,.5,.22,1,.33,1.5,.12,.55,.24,1.12,.35,1.68,.55,2.74,1.02,5.55,1.38,8.4,.09,.66,.17,1.32,.24,1.99,.53,4.67,.8,9.47,.8,14.37,0-15.82,2.85-30.61,7.78-43.16,8.11-20.61,21.84-35.22,37.85-38.56,2.3-.48,4.65-.73,7.03-.73,.65,0,1.29,.02,1.93,.06,10.07,.56,19.42,5.56,27.28,13.78,1.97,2.06,3.84,4.32,5.61,6.76,5.17,7.14,9.43,15.84,12.5,25.63,1.76-.17,3.54-.26,5.34-.26,1.3,0,2.6,.04,3.88,.14,.23,.01,.46,.03,.69,.05,.45,.03,.91,.07,1.36,.13,.25,.02,.49,.05,.74,.08,.42,.05,.84,.11,1.26,.17,.37,.05,.74,.1,1.11,.17,.41,.07,.82,.14,1.23,.22,.41,.07,.82,.15,1.22,.24,.4,.08,.8,.17,1.19,.26,.4,.09,.8,.18,1.19,.29,.35,.09,.7,.18,1.04,.28,.47,.13,.94,.26,1.41,.41,.33,.1,.66,.2,.99,.31,.46,.15,.91,.31,1.37,.48,.36,.12,.71,.25,1.07,.39,.37,.14,.73,.28,1.09,.42,.12,.05,.23,.1,.35,.15,.37,.15,.73,.31,1.1,.47,.28,.12,.55,.24,.83,.37,.36,.16,.72,.34,1.08,.51s.72,.35,1.07,.53c.54,.28,1.08,.56,1.6,.86,.43,.23,.85,.47,1.27,.72,.63,.37,1.24,.75,1.85,1.14,.51,.33,1.01,.66,1.51,1.01,.32,.22,.64,.44,.95,.67,1.01,.72,1.99,1.49,2.95,2.28,.26,.21,.51,.43,.77,.66,.78,.66,1.53,1.34,2.27,2.06,.23,.21,.46,.43,.67,.66,.7,.68,1.37,1.38,2.02,2.11,.21,.23,.42,.46,.62,.69,.37,.42,.73,.84,1.08,1.27,.36,.44,.72,.87,1.05,1.32,.06,.07,.12,.14,.17,.22,.37,.47,.72,.95,1.07,1.43,.24,.33,.47,.66,.69,.99,.23,.33,.45,.66,.67,1,.21,.32,.42,.65,.63,.98,.32,.51,.64,1.03,.94,1.56,.31,.53,.6,1.06,.89,1.6,.19,.36,.38,.71,.56,1.07,.27,.54,.54,1.08,.8,1.63,.25,.55,.5,1.1,.74,1.66,.09,.19,.17,.38,.24,.57,.08,.19,.16,.37,.23,.56,.15,.38,.3,.75,.44,1.14,.12,.3,.23,.59,.33,.89,.05,.13,.1,.26,.13,.38,.17,.48,.33,.96,.49,1.44,.17,.55,.34,1.11,.5,1.67,.75,2.64,1.31,5.35,1.66,8.13,.06,.46,.12,.93,.16,1.39,.08,.75,.14,1.5,.18,2.26,.02,.28,.04,.57,.05,.85,.04,.85,.06,1.71,.06,2.57,0,24.7-16.13,45.63-38.43,52.83-2.74,9.33-18.39,53.24-69.74,52.29,0,0-50.42,3.15-52.62-40.87Z"/>
    <path class="cls-4" d="M205.52,254.27c0,7.25-9.79,13.14-21.86,13.15h-.08c-12.07,0-21.85-5.9-21.85-13.15,0-.07,0-.13,0-.21,.18-7.17,9.91-12.94,21.88-12.94s21.71,5.77,21.89,12.94c.01,.08,.01,.14,.01,.21Z"/>
    <path class="cls-3" d="M344.45,203.17c0,24.7-16.13,45.63-38.43,52.83-2.74,9.33-18.39,53.24-69.74,52.29,0,0-50.42,3.15-52.62-40.87,12.07,0,21.86-5.9,21.86-13.15,0-.07,0-.13-.01-.21-.18-7.17-9.91-12.94-21.89-12.94s-21.7,5.77-21.88,12.94c0,.08,0,.14,0,.21,0,7.25,9.78,13.14,21.85,13.15-2.2,44.02-52.62,40.87-52.62,40.87-52.4,.97-67.62-44.78-69.89-52.82-21.49-7.65-36.87-28.18-36.87-52.3,0-.84,.02-1.67,.06-2.5,.01-.27,.02-.53,.04-.8,.02-.4,.05-.8,.08-1.2,.03-.39,.07-.79,.11-1.18,.04-.46,.1-.93,.16-1.39,.04-.33,.08-.66,.14-.99,.07-.49,.14-.98,.23-1.46,.06-.36,.12-.71,.19-1.06,.12-.63,.25-1.26,.4-1.89,.08-.37,.17-.73,.26-1.09,.18-.71,.37-1.42,.58-2.12,.1-.35,.21-.71,.32-1.06,.36-1.15,.76-2.29,1.21-3.42,.14-.38,.29-.75,.45-1.12,.14-.33,.27-.66,.42-.99,.02-.05,.04-.09,.06-.14,.15-.35,.31-.69,.47-1.03,.16-.36,.33-.71,.51-1.07,.32-.66,.66-1.31,1.01-1.95,.12-.23,.25-.46,.38-.69,.14-.25,.28-.5,.43-.74,.42-.74,.87-1.47,1.33-2.18,.23-.36,.47-.71,.71-1.06,.48-.71,.97-1.4,1.48-2.08,.36-.49,.73-.97,1.11-1.44,.18-.22,.36-.44,.54-.66,.56-.68,1.14-1.36,1.74-2.01,.28-.31,.57-.62,.86-.93,.32-.34,.65-.67,.98-1,.46-.47,.94-.92,1.42-1.37,1.69-1.58,3.48-3.05,5.36-4.41,.23-.16,.47-.33,.7-.49,.33-.24,.66-.46,.99-.68,.32-.21,.65-.43,.98-.64,.39-.25,.78-.49,1.17-.72,1-.61,2.01-1.18,3.05-1.71,.29-.16,.59-.31,.88-.45,.35-.18,.71-.35,1.06-.52,.36-.16,.71-.33,1.07-.49,6.9-3.07,14.53-4.78,22.57-4.78,1.34,0,2.66,.05,3.97,.14-3.45,10.96-5.38,23.3-5.38,36.34,0,6.55,.49,12.92,1.41,19.03,3.2,21.18,11.6,39.19,22.99,50.55,8.16,8.15,17.86,12.87,28.26,12.87,10.93,0,21.08-5.21,29.49-14.14,13.98-14.82,23.17-39.89,23.17-68.31,0,28.42,9.19,53.49,23.17,68.31,8.41,8.93,18.56,14.14,29.49,14.14s20.46-4.9,28.71-13.33c11.16-11.38,19.39-29.2,22.54-50.09,.92-6.11,1.41-12.48,1.41-19.03,0-12.99-1.92-25.29-5.34-36.22,1.76-.17,3.54-.26,5.34-.26,1.3,0,2.6,.04,3.88,.14,.23,.01,.46,.03,.69,.05,.45,.03,.91,.07,1.36,.13,.25,.02,.49,.05,.74,.08,.42,.05,.84,.11,1.26,.17,.37,.05,.74,.1,1.11,.17,.41,.07,.82,.14,1.23,.22,.41,.07,.82,.15,1.22,.24,.4,.08,.8,.17,1.19,.26,.4,.09,.8,.18,1.19,.29,.35,.09,.7,.18,1.04,.28,.47,.13,.94,.26,1.41,.41,.33,.1,.66,.2,.99,.31,.46,.15,.91,.31,1.37,.48,.36,.12,.71,.25,1.07,.39,.37,.14,.73,.28,1.09,.42,.12,.05,.23,.1,.35,.15,.37,.15,.73,.31,1.1,.47,.28,.12,.55,.24,.83,.37,.36,.16,.72,.34,1.08,.51s.72,.35,1.07,.53c.54,.28,1.08,.56,1.6,.86,.43,.23,.85,.47,1.27,.72,.63,.37,1.24,.75,1.85,1.14,.51,.33,1.01,.66,1.51,1.01,.32,.22,.64,.44,.95,.67,1.01,.72,1.99,1.49,2.95,2.28,.26,.21,.51,.43,.77,.66,.78,.66,1.53,1.34,2.27,2.06,.23,.21,.45,.43,.67,.66,.7,.68,1.37,1.38,2.02,2.11,.21,.23,.42,.46,.62,.69,.37,.42,.73,.84,1.08,1.27,.36,.44,.72,.87,1.05,1.32,.06,.07,.12,.14,.17,.22,.37,.47,.72,.95,1.07,1.43,.24,.33,.47,.66,.69,.99,.23,.33,.45,.66,.67,1,.21,.32,.42,.65,.63,.98,.32,.51,.64,1.03,.94,1.56,.31,.53,.6,1.06,.89,1.6,.19,.36,.38,.71,.56,1.07,.27,.54,.54,1.08,.8,1.63,.25,.55,.5,1.1,.74,1.66,.09,.19,.17,.38,.24,.57,.08,.19,.16,.37,.23,.56,.15,.38,.3,.75,.44,1.14,.12,.3,.23,.59,.33,.89,.05,.13,.1,.26,.13,.38,.17,.48,.33,.96,.49,1.44,.17,.55,.34,1.11,.5,1.67,.75,2.64,1.31,5.35,1.66,8.13,.06,.46,.12,.93,.16,1.39,.08,.75,.14,1.5,.18,2.26,.02,.28,.04,.57,.05,.85,.04,.85,.06,1.71,.06,2.57Z"/>
    <path class="cls-5" d="M205.52,254.27c0,7.25-9.79,13.14-21.86,13.15-.02-.27-.01-.09-.02-.37,0,.28-.04,.1-.06,.37-12.07,0-21.85-5.9-21.85-13.15,0-.07,0-.13,0-.21,.18-7.17,9.91-12.94,21.88-12.94s21.71,5.77,21.89,12.94c.01,.08,.01,.14,.01,.21Z"/>
    <circle class="cls-5" cx="54.06" cy="183.58" r="2.49"/>
    <circle class="cls-5" cx="71.79" cy="212.11" r="2.49"/>
    <circle class="cls-5" cx="37.29" cy="212.11" r="2.49"/>
    <circle class="cls-5" cx="315.05" cy="183.58" r="5.01"/>
    <circle class="cls-5" cx="332.79" cy="212.11" r="2.49"/>
    <circle class="cls-5" cx="298.29" cy="212.11" r="2.49"/>
    <circle class="cls-5" cx="332.79" cy="212.11" r="5.01"/>
    <circle class="cls-5" cx="298.29" cy="212.11" r="5.01"/>
    <circle class="cls-5" cx="54.06" cy="183.58" r="5.01"/>
    <circle class="cls-5" cx="71.79" cy="213.46" r="5.01"/>
    <circle class="cls-5" cx="37.29" cy="212.11" r="5.01"/>
  </g>
</svg>